<?xml version="1.0" encoding="UTF-8" standalone="no"?>
<svg
   style="fill-opacity:1; color-rendering:auto; color-interpolation:auto; text-rendering:auto; stroke:black; stroke-linecap:square; stroke-miterlimit:10; shape-rendering:auto; stroke-opacity:1; fill:black; stroke-dasharray:none; font-weight:normal; stroke-width:1; font-family:'Dialog'; font-style:normal; stroke-linejoin:miter; font-size:12px; stroke-dashoffset:0; image-rendering:auto;"
   width="16"
   height="16"
   version="1.1"
   id="svg19"
   sodipodi:docname="App.svg"
   inkscape:version="1.2.1 (9c6d41e410, 2022-07-14)"
   xmlns:inkscape="http://www.inkscape.org/namespaces/inkscape"
   xmlns:sodipodi="http://sodipodi.sourceforge.net/DTD/sodipodi-0.dtd"
   xmlns="http://www.w3.org/2000/svg"
   xmlns:svg="http://www.w3.org/2000/svg">
  <sodipodi:namedview
     id="namedview21"
     pagecolor="#ffffff"
     bordercolor="#000000"
     borderopacity="0.25"
     inkscape:showpageshadow="2"
     inkscape:pageopacity="0.0"
     inkscape:pagecheckerboard="0"
     inkscape:deskcolor="#d1d1d1"
     showgrid="false"
     inkscape:zoom="50.25"
     inkscape:cx="7.8507463"
     inkscape:cy="6.6567164"
     inkscape:window-width="1920"
     inkscape:window-height="991"
     inkscape:window-x="-9"
     inkscape:window-y="-9"
     inkscape:window-maximized="1"
     inkscape:current-layer="svg19" />
  <!--Generated by the Batik Graphics2D SVG Generator-->
  <defs
     id="genericDefs" />
  <g
     id="g17"
     transform="matrix(1.2,0,0,1.2,-1.6,-1.6)">
    <g
       style="fill:#000000;fill-opacity:0;stroke:#000000;stroke-opacity:0"
       id="g5">
      <rect
         x="0"
         width="16"
         height="16"
         y="0"
         style="stroke:none"
         id="rect3" />
    </g>
    <g
       style="fill:#ffffff;stroke:#ffffff"
       transform="translate(0.5,1.5)"
       id="g15">
      <polygon
         style="stroke:none"
         points="10,2 13,5 13,10 10,13 5,13 2,10 2,5 5,2 "
         id="polygon7" />
      <polygon
         style="fill:#7f7f7f;stroke:none"
         points="10,3 13,6 13,10 10,13 6,13 3,10 3,6 6,3 "
         id="polygon9" />
      <polygon
         style="fill:#0000ff;stroke:none"
         points="9,3 12,6 12,9 9,12 6,12 3,9 3,6 6,3 "
         id="polygon11" />
      <polygon
         style="fill:#00ff00;stroke:none"
         points="9,3 11,1 11,0 4,0 4,1 6,3 "
         id="polygon13" />
    </g>
  </g>
</svg>
